<svg width="344" height="100" viewBox="0 0 344 100" fill="none" xmlns="http://www.w3.org/2000/svg">
<path fill-rule="evenodd" clip-rule="evenodd" d="M278.911 55.3137L278.968 55.3438V48.7031H275.974V53.75L275.974 53.7502C275.065 54.4172 273.934 54.8125 272.708 54.8125C269.703 54.8125 267.266 52.434 267.266 49.5C267.266 46.566 269.703 44.1875 272.708 44.1875C274.142 44.1875 275.447 44.7286 276.419 45.613L278.729 43.3582C277.165 41.8974 275.044 41 272.708 41C267.899 41 264 44.8056 264 49.5C264 54.1944 267.899 58 272.708 58C275.182 58 277.415 56.9934 279 55.377L278.911 55.3137Z" fill="black"/>
<path fill-rule="evenodd" clip-rule="evenodd" d="M333 41V54.8125V58H344V54.8125H336.143L336.143 41H333Z" fill="black"/>
<path fill-rule="evenodd" clip-rule="evenodd" d="M321.254 44.1167L328 58H324.762L319.603 47.3833L314.238 58H311L318.016 44.1167L319.635 41L321.254 44.1167Z" fill="black"/>
<rect x="256" y="58" width="17" height="3" transform="rotate(-90 256 58)" fill="black"/>
<rect x="284" y="58" width="17" height="3" transform="rotate(-90 284 58)" fill="black"/>
<path fill-rule="evenodd" clip-rule="evenodd" d="M301.615 44.1875L307 44.1875V41L301.615 41H298.385H293L293 44.1875L298.385 44.1875L298.385 58H301.615L301.615 44.1875Z" fill="black"/>
<path fill-rule="evenodd" clip-rule="evenodd" d="M241.825 41H237V44.1875H242.088C245.022 44.1875 247.4 46.566 247.4 49.5C247.4 52.434 245.022 54.8125 242.088 54.8125H237V58H241.825C246.34 58 250 54.3401 250 49.8255V49.1745C250 44.6599 246.34 41 241.825 41Z" fill="black"/>
<path fill-rule="evenodd" clip-rule="evenodd" d="M181 41H188.065C190.79 41 193 43.2097 193 45.9355C193 48.6613 190.79 50.871 188.065 50.871H184L184 58H181L181 50.871H181V47.5806L181 47.5806H184L188.355 47.5806C189.263 47.5806 190 46.8441 190 45.9355C190 45.0269 189.263 44.2903 188.355 44.2903H181V41Z" fill="black"/>
<path fill-rule="evenodd" clip-rule="evenodd" d="M199 58L199 41L202.12 41L202.12 48.129L208.88 48.129L208.88 41L212 41V58H208.88V51.4194L202.12 51.4194L202.12 58H199Z" fill="black"/>
<path fill-rule="evenodd" clip-rule="evenodd" d="M164 41V54.8125V58H175V54.8125H167.143L167.143 41H164Z" fill="black"/>
<rect x="218" y="58" width="17" height="3" transform="rotate(-90 218 58)" fill="black"/>
<path fill-rule="evenodd" clip-rule="evenodd" d="M132.825 41H128V44.1875H133.088C136.022 44.1875 138.4 46.566 138.4 49.5C138.4 52.434 136.022 54.8125 133.088 54.8125H128V58H132.825C137.34 58 141 54.3401 141 49.8255V49.1745C141 44.6599 137.34 41 132.825 41Z" fill="black"/>
<path fill-rule="evenodd" clip-rule="evenodd" d="M146 41H157V44.1875H146V41ZM146 47.9063H155.952V51.0938H146V47.9063ZM157 54.8125H146V58H157V54.8125Z" fill="black"/>
<g clip-path="url(#clip0)">
<path d="M19.0989 33.6266C19.6866 33.5288 20.3722 33.3333 20.9598 33.2356C27.8159 31.9648 32.0274 27.4682 33.2027 20.6256C33.7904 17.1065 34.5739 13.4897 35.8472 10.1662C37.4143 6.06059 40.4505 2.83479 44.5642 1.07526C50.4407 -1.46629 57.5906 0.586497 61.7042 5.96284C62.7816 7.33137 63.5651 8.89539 64.6425 10.5572C63.5651 11.1437 62.7816 11.6324 61.8022 12.1212C61.4104 11.4369 61.0186 10.8504 60.7248 10.2639C58.3741 6.2561 55.24 3.32355 50.1469 3.22579C46.2292 3.12804 43.193 4.88757 40.8423 7.91788C38.0999 11.4369 37.1205 15.6403 36.5328 19.9413C35.3575 28.0547 30.7542 33.2356 22.9187 35.6794C20.4701 36.5591 19.9804 36.2659 19.0989 33.6266Z" fill="black"/>
<path d="M81.195 66.3734C80.5094 66.5689 79.9217 66.6667 79.432 66.7644C72.9677 67.6442 68.1685 72.2385 66.9932 78.6901C66.4055 81.7204 66.1117 84.7507 65.0343 87.5855C63.957 90.3226 62.3899 93.1574 60.431 95.3079C54.3585 101.955 44.7601 101.564 38.8835 94.7214C38.1979 93.9394 37.6102 92.9619 37.0226 92.0821C36.5329 91.3001 36.1411 90.4203 35.5534 89.4428C36.4349 88.954 37.2185 88.4653 38.1979 87.8788C38.5897 88.563 39.0794 89.1495 39.3732 89.8338C42.4094 95.4057 47.6984 97.9472 53.1832 96.3832C57.3948 95.1124 60.0392 91.9843 61.5084 88.0743C62.5857 85.435 63.0755 82.6002 63.5652 79.7654C64.8384 71.7497 69.5397 66.8622 76.9834 64.3206C79.2361 63.5386 80.1176 63.9296 81.195 66.3734Z" fill="black"/>
<path d="M88.3448 32.3558C85.2106 31.6716 85.2106 31.6716 85.8962 29.13C88.5406 19.3548 81.3908 11.828 71.4985 14.2717C69.3438 14.7605 67.287 15.9335 65.2302 17.0088C63.761 17.7908 62.4878 18.8661 61.1166 19.8436C54.3585 24.5357 47.4045 24.4379 40.2547 20.6256C38.4917 19.6481 38.8835 18.3773 39.667 16.7155C40.3526 17.1065 40.9403 17.4976 41.5279 17.8886C46.9148 21.5054 52.7914 21.5054 58.1783 17.9863C59.9412 16.8133 61.5083 15.4448 63.2713 14.3695C66.7973 12.1212 70.617 10.7527 74.9265 10.7527C84.3291 10.7527 90.9892 18.4751 89.5201 27.7615C89.2263 29.13 88.7365 30.694 88.3448 32.3558Z" fill="black"/>
<path d="M11.8511 67.8397C14.9853 68.2307 14.9853 68.2307 14.2997 70.9677C12.8306 76.4418 14.2018 81.1339 18.2175 84.1642C22.0372 87.0968 26.4447 86.9013 30.5583 85.2395C33.4966 84.0665 36.239 82.2092 38.8835 80.3519C45.3477 75.8553 52.1058 75.6598 59.0598 79.0811C61.2145 80.1564 61.6063 81.2317 60.431 83.3822C60.0392 83.1867 59.6474 83.0889 59.3536 82.7957C53.2811 78.2991 46.8169 78.4946 40.7444 82.9912C38.4917 84.653 36.0431 86.3148 33.4966 87.4878C31.146 88.563 28.5015 89.2473 25.955 89.4428C15.8668 90.0293 8.91285 81.8182 10.7738 71.9453C10.9697 70.479 11.4594 69.1105 11.8511 67.8397Z" fill="black"/>
<path d="M31.5378 14.6627C30.4604 14.4672 29.383 14.174 28.3056 13.8807C18.6093 11.8279 11.6553 18.9638 13.908 28.5435C14.7895 32.1603 16.8463 35.0928 18.8052 38.1231C20.3722 40.4692 21.8414 43.0107 22.6249 45.65C24.0941 50.4399 23.0167 55.0342 20.764 59.433C19.8825 61.1926 18.8052 61.2903 16.5525 59.9218C16.9442 59.2375 17.434 58.5533 17.8257 57.869C21.4496 52.1994 21.2537 46.5298 17.336 41.0557C15.7689 38.8074 14.2018 36.5591 12.8306 34.2131C10.7738 30.5963 9.99027 26.5884 10.5779 22.4829C11.8512 14.3695 19.3928 9.18864 27.9139 10.7527C28.6974 10.9482 29.481 11.1437 30.3625 11.3392C32.7131 12.1212 32.811 12.2189 31.5378 14.6627Z" fill="black"/>
<path d="M11.9491 38.0254C10.6759 38.8074 9.4026 39.5894 8.12934 40.4692C1.17537 45.65 1.17537 54.2522 8.12934 59.433C11.5574 62.0723 15.671 62.9521 19.8825 63.5386C27.8159 64.6139 33.2028 68.8172 35.8473 76.4418C36.8267 79.0811 36.5329 79.5699 33.5946 80.7429C33.3987 80.0587 33.2028 79.2766 33.1049 78.5924C31.6357 71.652 27.4241 67.8397 20.3722 66.5689C16.5525 65.8847 12.6347 65.0049 9.10877 63.4409C4.60338 61.4858 1.4692 57.7713 0.391827 52.7859C-1.07732 45.9433 3.23218 38.4164 9.99026 35.9726C10.8717 35.5816 11.1656 35.8749 11.9491 38.0254Z" fill="black"/>
<path d="M83.5456 39.9804C83.0559 40.6647 82.6641 41.349 82.1744 42.0332C78.5505 47.7028 78.7464 53.9589 82.86 59.2375C85.8962 63.1476 88.6386 67.2532 89.3242 72.3363C90.1078 78.0059 88.7366 82.7957 84.0353 86.4125C79.334 90.1271 74.0451 90.1271 68.6582 88.3675C66.6994 87.6833 68.0706 86.5103 68.2664 85.3372C69.7356 85.6305 71.1068 86.0215 72.3801 86.217C81.195 87.781 87.8551 81.1339 86.1901 72.3363C85.4065 68.3284 83.3497 64.9071 80.9011 61.6813C76.004 55.3275 75.3184 48.5826 78.6484 41.349C80.0196 38.8074 80.8032 38.5142 83.5456 39.9804Z" fill="black"/>
<path d="M87.953 62.0723C89.3242 61.1926 90.4995 60.6061 91.5769 59.8241C99.0206 54.6432 99.0206 45.5523 91.6748 40.2737C88.7365 38.1232 85.3085 37.2434 81.7826 36.5591C79.236 36.0704 76.5916 35.5816 74.2409 34.6041C68.7561 32.3558 65.6219 27.8592 63.9569 22.3851C63.2713 20.2346 65.1322 19.9413 66.5034 19.0616C66.6993 19.8436 66.8952 20.4301 66.9931 21.1144C68.3643 28.0547 72.7718 32.1603 79.7258 33.3333C83.0558 33.9198 86.4838 34.4086 89.5201 35.6794C95.3967 38.2209 99.7062 42.2287 100 49.1691C100.294 56.696 95.7884 61.1926 90.2057 63.9296C88.6386 64.7116 88.6386 62.9521 87.953 62.0723Z" fill="black"/>
</g>
<defs>
<clipPath id="clip0">
<rect width="100" height="100" fill="white"/>
</clipPath>
</defs>
</svg>
