<?xml version="1.0" encoding="UTF-8"?>
<svg width="222px" height="222px" viewBox="0 0 222 222" version="1.1" xmlns="http://www.w3.org/2000/svg" xmlns:xlink="http://www.w3.org/1999/xlink">
    <title>instagram</title>
    <g id="Page-1" stroke="none" stroke-width="1" fill="none" fill-rule="evenodd">
        <g id="Desktop-HD-1920" transform="translate(-1303.000000, -22976.000000)" fill="#FFFFFF" fill-rule="nonzero">
            <g id="instagram" transform="translate(1303.000000, 22976.000000)">
                <path d="M152.625,0 L69.375,0 C31.066125,0 0,31.066125 0,69.375 L0,152.625 C0,190.933875 31.066125,222 69.375,222 L152.625,222 C190.933875,222 222,190.933875 222,152.625 L222,69.375 C222,31.066125 190.933875,0 152.625,0 Z M201.1875,152.625 C201.1875,179.40375 179.40375,201.1875 152.625,201.1875 L69.375,201.1875 C42.59625,201.1875 20.8125,179.40375 20.8125,152.625 L20.8125,69.375 C20.8125,42.59625 42.59625,20.8125 69.375,20.8125 L152.625,20.8125 C179.40375,20.8125 201.1875,42.59625 201.1875,69.375 L201.1875,152.625 Z" id="Shape"></path>
                <path d="M112,56 C81.074,56 56,81.074 56,112 C56,142.926 81.074,168 112,168 C142.926,168 168,142.926 168,112 C168,81.074 142.926,56 112,56 Z M112,147 C92.708,147 77,131.292 77,112 C77,92.694 92.708,77 112,77 C131.292,77 147,92.694 147,112 C147,131.292 131.292,147 112,147 Z" id="Shape"></path>
                <circle id="Oval" cx="170.5" cy="51.5" r="7.5"></circle>
            </g>
        </g>
    </g>
</svg>