<?xml version="1.0" encoding="UTF-8"?>
<svg width="222px" height="222px" viewBox="0 0 222 222" version="1.1" xmlns="http://www.w3.org/2000/svg" xmlns:xlink="http://www.w3.org/1999/xlink">
    <title>linkedin</title>
    <g id="Page-1" stroke="none" stroke-width="1" fill="none" fill-rule="evenodd">
        <g id="Desktop-HD-1920" transform="translate(-1060.000000, -22976.000000)" fill="#FFFFFF" fill-rule="nonzero">
            <g id="linkedin" transform="translate(1060.000000, 22976.000000)">
                <path d="M69.3783872,183.410156 L39.0268247,183.410156 L39.0268247,85.4179687 L69.3783872,85.4179687 L69.3783872,183.410156 Z M72.406769,54.1975251 C72.406769,44.3857729 64.4462583,36.421875 54.6395874,36.421875 C44.7956543,36.421875 36.8554688,44.3857729 36.8554688,54.1975251 C36.8554688,64.0126646 44.7956543,71.9765625 54.6395874,71.9765625 C64.4462583,71.9765625 72.406769,64.0126646 72.406769,54.1975251 Z M182.976563,129.498871 C182.976563,103.193619 177.419449,83.6835938 146.690186,83.6835938 C131.924286,83.6835938 122.012604,91.0682373 117.966293,98.7475893 L117.9375,98.7475893 L117.9375,85.4179688 L88.453125,85.4179688 L88.453125,183.410156 L117.9375,183.410156 L117.9375,134.756195 C117.9375,122.014298 121.180985,109.670426 136.974976,109.670426 C152.553864,109.670426 153.058594,124.241546 153.058594,135.565796 L153.058594,183.410156 L182.976563,183.410156 L182.976563,129.498871 Z M222,195.984375 L222,26.015625 C222,11.6697691 210.330231,0 195.984375,0 L26.015625,0 C11.6697691,0 0,11.6697691 0,26.015625 L0,195.984375 C0,210.330231 11.6697691,222 26.015625,222 L195.984375,222 C210.330231,222 222,210.330231 222,195.984375 Z M195.984375,17.34375 C200.765762,17.34375 204.65625,21.2342376 204.65625,26.015625 L204.65625,195.984375 C204.65625,200.765762 200.765762,204.65625 195.984375,204.65625 L26.015625,204.65625 C21.2342376,204.65625 17.34375,200.765762 17.34375,195.984375 L17.34375,26.015625 C17.34375,21.2342376 21.2342376,17.34375 26.015625,17.34375 L195.984375,17.34375 Z" id="Shape"></path>
            </g>
        </g>
    </g>
</svg>