<?xml version="1.0" encoding="UTF-8"?>
<svg width="291px" height="222px" viewBox="0 0 291 222" version="1.1" xmlns="http://www.w3.org/2000/svg" xmlns:xlink="http://www.w3.org/1999/xlink">
    <title>mail</title>
    <g id="Page-1" stroke="none" stroke-width="1" fill="none" fill-rule="evenodd">
        <g id="Desktop-HD-1920" transform="translate(-736.000000, -22976.000000)" fill="#FFFFFF" fill-rule="nonzero">
            <g id="mail" transform="translate(736.000000, 22976.000000)">
                <path d="M265.423828,0 L25.5761719,0 C11.4910898,0 0,11.4961846 0,25.6153846 L0,196.384615 C0,210.456 11.4399375,222 25.5761719,222 L265.423828,222 C279.473672,222 291,210.542523 291,196.384615 L291,25.6153846 C291,11.544 279.560063,0 265.423828,0 Z M261.892043,17.0769231 L146.042215,133.104938 L29.1903691,17.0769231 L261.892043,17.0769231 Z M17.0507812,192.848554 L17.0507812,29.0700462 L99.1667754,110.606662 L17.0507812,192.848554 Z M29.1073887,204.923077 L111.275104,122.629385 L140.066484,151.217292 C143.399344,154.5268 148.777729,154.515985 152.096947,151.191108 L180.169922,123.075092 L261.892611,204.923077 L29.1073887,204.923077 Z M273.949219,192.847985 L192.226529,111 L273.949219,29.1514462 L273.949219,192.847985 Z" id="Shape"></path>
            </g>
        </g>
    </g>
</svg>